<svg xmlns="http://www.w3.org/2000/svg" version="1.1" xmlns:xlink="http://www.w3.org/1999/xlink" xmlns:svgjs="http://svgjs.dev/svgjs" width="128" height="128" viewBox="0 0 128 128"><g transform="matrix(0.8046875,0,0,0.8046875,12.411840748212605,12.814873242367192)"><svg viewBox="0 0 98 98" data-background-color="#fbcd08" preserveAspectRatio="xMidYMid meet" height="127" width="128" xmlns="http://www.w3.org/2000/svg" xmlns:xlink="http://www.w3.org/1999/xlink"><g id="tight-bounds" transform="matrix(1,0,0,1,0.0838796764579115,0.0838796764579115)"><svg viewBox="0 0 97.83224064708416 97.83224064708416" height="97.83224064708416" width="97.83224064708416"><g><svg></svg></g><g><svg viewBox="0 0 97.83224064708416 97.83224064708416" height="97.83224064708416" width="97.83224064708416"><g><path d="M0 48.916c0-27.016 21.9-48.916 48.916-48.916 27.016 0 48.916 21.9 48.916 48.916 0 27.016-21.9 48.916-48.916 48.916-27.016 0-48.916-21.9-48.916-48.916zM48.916 93.244c24.481 0 44.328-19.846 44.328-44.328 0-24.481-19.846-44.328-44.328-44.327-24.481 0-44.328 19.846-44.327 44.327 0 24.481 19.846 44.328 44.327 44.328z" data-fill-palette-color="tertiary" fill="#372e18" stroke="transparent"></path><ellipse rx="46.9594755106004" ry="46.9594755106004" cx="48.91612032354208" cy="48.91612032354208" fill="#372e18" stroke="transparent" stroke-width="0" fill-opacity="1" data-fill-palette-color="tertiary"></ellipse></g><g transform="matrix(1,0,0,1,30.853204573498036,23.475393915029343)"><svg viewBox="0 0 36.12583150008809 50.881452817025476" height="50.881452817025476" width="36.12583150008809"><g><svg viewBox="0 0 36.12583150008809 50.881452817025476" height="50.881452817025476" width="36.12583150008809"><g><svg viewBox="0 0 36.12583150008809 50.881452817025476" height="50.881452817025476" width="36.12583150008809"><g id="textblocktransform"><svg viewBox="0 0 36.12583150008809 50.881452817025476" height="50.881452817025476" width="36.12583150008809" id="textblock"><g><svg viewBox="0 0 36.12583150008809 50.881452817025476" height="50.881452817025476" width="36.12583150008809"><g><svg viewBox="0 0 36.12583150008809 50.881452817025476" height="50.881452817025476" width="36.12583150008809"><g><svg xmlns="http://www.w3.org/2000/svg" xmlns:xlink="http://www.w3.org/1999/xlink" version="1.1" x="0" y="0" viewBox="15 0 71 100" enable-background="new 0 0 100 100" xml:space="preserve" height="50.881452817025476" width="36.12583150008809" class="icon-icon-0" data-fill-palette-color="quaternary" id="icon-0"><g fill="#fbcd08" data-fill-palette-color="quaternary"><polygon points="86,0 15,0 15,90 35.909,90 32.254,84 21,84 21,6 80,6 80,84 67.746,84 64.092,90 86,90  " fill="#fbcd08" data-fill-palette-color="quaternary"></polygon></g><polygon points="55,82 55,69 45,69 45,82 39.036,82 44.518,91 50,100 55.482,91 60.964,82 " fill="#fbcd08" data-fill-palette-color="quaternary"></polygon></svg></g></svg></g></svg></g></svg></g></svg></g><g></g></svg></g></svg></g></svg></g><defs></defs></svg><rect width="97.83224064708416" height="97.83224064708416" fill="none" stroke="none" visibility="hidden"></rect></g></svg></g></svg>