<svg xmlns="http://www.w3.org/2000/svg" version="1.1" xmlns:xlink="http://www.w3.org/1999/xlink" xmlns:svgjs="http://svgjs.dev/svgjs" width="2000" height="1999" viewBox="0 0 2000 1999"><g transform="matrix(1,0,0,1,-0.431486880466764,-0.4312711370263287)"><svg viewBox="0 0 343 343" data-background-color="#fbcd08" preserveAspectRatio="xMidYMid meet" height="1999" width="2000" xmlns="http://www.w3.org/2000/svg" xmlns:xlink="http://www.w3.org/1999/xlink"><g id="tight-bounds" transform="matrix(1,0,0,1,0.0740000000000407,0.07400000000001228)"><svg viewBox="0 0 342.85155851775386 342.85155851775386" height="342.85155851775386" width="342.85155851775386"><g><svg></svg></g><g><svg viewBox="0 0 342.85155851775386 342.85155851775386" height="342.85155851775386" width="342.85155851775386"><g><path d="M0 171.426c0-94.676 76.75-171.426 171.426-171.426 94.676 0 171.426 76.75 171.426 171.426 0 94.676-76.75 171.426-171.426 171.426-94.676 0-171.426-76.75-171.426-171.426zM171.426 340.218c93.221 0 168.792-75.571 168.792-168.792 0-93.221-75.571-168.792-168.792-168.792-93.221 0-168.792 75.571-168.792 168.792 0 93.221 75.571 168.792 168.792 168.792z" data-fill-palette-color="tertiary" fill="#372e18" stroke="transparent"></path><ellipse rx="164.56874808852186" ry="164.56874808852186" cx="171.42577925887693" cy="171.42577925887693" fill="#372e18" stroke="transparent" stroke-width="0" fill-opacity="1" data-fill-palette-color="tertiary"></ellipse></g><g transform="matrix(1,0,0,1,64.84655864529837,128.75675678914462)"><svg viewBox="0 0 213.1584412271571 85.33804493946464" height="85.33804493946464" width="213.1584412271571"><g><svg viewBox="0 0 213.1584412271571 85.33804493946464" height="85.33804493946464" width="213.1584412271571"><g><svg viewBox="0 0 213.15844122715714 85.33804493946465" height="85.33804493946464" width="213.1584412271571"><g transform="matrix(1,0,0,1,0,56.13385012328875)"><svg viewBox="0 0 213.15844122715714 29.204194816175896" height="29.204194816175896" width="213.15844122715714"><g id="textblocktransform"><svg viewBox="0 0 213.15844122715714 29.204194816175896" height="29.204194816175896" width="213.15844122715714" id="textblock"><g><svg viewBox="0 0 213.15844122715714 29.204194816175896" height="29.204194816175896" width="213.15844122715714"><g transform="matrix(1,0,0,1,0,0)"><svg width="213.15844122715714" viewBox="-0.28888844444 -40.8 397.37888844444 54.449999999999996" height="29.204194816175896" data-palette-color="#fbcd08"><path d="M38.25-24.3L28.1 2.2 27.05 2.2 20.45-16.15 13.6 2.2 12.55 2.2 2.95-24.25-0.2-24.85Q-0.4-25.65-0.2-26.85L-0.2-26.85Q2.55-26.65 5.75-26.65L5.75-26.65Q8.6-26.65 11.8-26.8L11.8-26.8Q12.1-25.8 11.8-24.85L11.8-24.85 7.95-24.25 11.95-12.9Q13.7-7.9 14.25-5.65L14.25-5.65 14.35-5.65Q15.55-9.95 16.7-12.65L16.7-12.65 19.25-19.5 17.55-24.25 14.4-24.85Q14.2-25.65 14.4-26.85L14.4-26.85Q17.15-26.65 20.35-26.65L20.35-26.65Q23.2-26.65 26.4-26.8L26.4-26.8Q26.7-25.8 26.4-24.85L26.4-24.85 22.55-24.25 26.4-12.9Q28.15-7.9 28.7-5.65L28.7-5.65 28.8-5.65Q30-9.95 31.15-12.65L31.15-12.65 35.5-24.45 31.6-24.85Q31.4-25.65 31.6-26.85L31.6-26.85Q34.35-26.65 36.75-26.65L36.75-26.65Q38.8-26.65 42-26.8L42-26.8Q42.3-25.8 42-24.85L42-24.85 38.25-24.3ZM48.65-6.65L48.65-6.65Q48.65-4.05 49.6-2.98 50.55-1.9 52.6-1.9L52.6-1.9Q54.1-1.9 55.92-2.83 57.75-3.75 59.3-5.5L59.3-5.5 59.3-13.3Q54.15-13 51.4-11.48 48.65-9.95 48.65-6.65ZM59.3-15.1L59.3-15.1 59.3-17.65Q59.3-21.9 58.32-23.83 57.35-25.75 55.1-25.75L55.1-25.75Q52.8-25.75 51.4-24.28 50-22.8 49.5-19.25L49.5-19.25Q47.9-18.9 47.15-18.9L47.15-18.9Q45.2-18.9 44.85-20.3L44.85-20.3Q44.85-23.7 47.8-25.7 50.75-27.7 55.15-27.7L55.15-27.7Q60-27.7 62.02-25.73 64.05-23.75 64.05-18.65L64.05-18.65 64.05-4.55Q64.05-3.3 64.2-2.4L64.2-2.4 68.15-1.9Q68.35-1.15 68.15 0L68.15 0Q64.6 0.15 60.6 0.7L60.6 0.7Q60.2 0.3 60.1-0.3L60.1-0.3 59.85-3.75Q55.7 1 50.6 1L50.6 1Q47.45 1 45.67-0.8 43.9-2.6 43.9-5.65L43.9-5.65Q43.9-10.25 48.07-12.6 52.25-14.95 59.3-15.1ZM78.45-31.7L78.45-31.7 78.45-2.55 82.5-1.8Q82.7-1 82.5 0.2L82.5 0.2Q79.35 0.05 76.05 0.05L76.05 0.05Q73.75 0.05 69.55 0.15L69.55 0.15Q69.25-0.8 69.55-1.8L69.55-1.8 73.5-2.35Q73.7-5.1 73.7-8.7L73.7-8.7 73.7-37.35 69.6-37.85Q69.4-38.6 69.6-39.75L69.6-39.75Q73.05-40 78.2-40.8L78.2-40.8Q78.65-40.3 78.7-39.8L78.7-39.8Q78.45-38.5 78.45-31.7ZM93.39-31.7L93.39-31.7 93.39-2.55 97.44-1.8Q97.64-1 97.44 0.2L97.44 0.2Q94.29 0.05 90.99 0.05L90.99 0.05Q88.69 0.05 84.49 0.15L84.49 0.15Q84.19-0.8 84.49-1.8L84.49-1.8 88.44-2.35Q88.64-5.1 88.64-8.7L88.64-8.7 88.64-37.35 84.54-37.85Q84.34-38.6 84.54-39.75L84.54-39.75Q87.99-40 93.14-40.8L93.14-40.8Q93.59-40.3 93.64-39.8L93.64-39.8Q93.39-38.5 93.39-31.7ZM115.39-1.7L115.39-1.7Q118.69-1.7 120.62-4.9 122.54-8.1 122.54-14.55L122.54-14.55Q122.54-19.5 120.72-22.1 118.89-24.7 115.89-24.7L115.89-24.7Q111.49-24.7 108.29-20.45L108.29-20.45 108.29-4.9Q111.09-1.7 115.39-1.7ZM103.54 4.75L103.54-19.55Q103.54-22.9 103.39-24.25L103.39-24.25 99.44-24.75Q99.29-25.55 99.44-26.65L99.44-26.65Q102.94-26.9 108.04-27.7L108.04-27.7Q108.49-27.25 108.54-26.7L108.54-26.7Q108.29-24.95 108.29-23L108.29-23Q112.34-27.7 117.59-27.7L117.59-27.7Q121.99-27.7 124.92-24.05 127.84-20.4 127.84-14.4L127.84-14.4Q127.84-7.45 124.02-3.23 120.19 1 114.99 1L114.99 1Q111.34 1 108.29-1.35L108.29-1.35 108.29 10.9 113.34 11.65Q113.54 12.45 113.34 13.65L113.34 13.65Q110.19 13.5 106.39 13.5L106.39 13.5Q103.59 13.5 99.39 13.6L99.39 13.6Q99.09 12.6 99.39 11.65L99.39 11.65 103.34 11.1Q103.54 8.35 103.54 4.75L103.54 4.75ZM136.79-6.65L136.79-6.65Q136.79-4.05 137.74-2.98 138.69-1.9 140.74-1.9L140.74-1.9Q142.24-1.9 144.06-2.83 145.89-3.75 147.44-5.5L147.44-5.5 147.44-13.3Q142.29-13 139.54-11.48 136.79-9.95 136.79-6.65ZM147.44-15.1L147.44-15.1 147.44-17.65Q147.44-21.9 146.46-23.83 145.49-25.75 143.24-25.75L143.24-25.75Q140.94-25.75 139.54-24.28 138.14-22.8 137.64-19.25L137.64-19.25Q136.04-18.9 135.29-18.9L135.29-18.9Q133.34-18.9 132.99-20.3L132.99-20.3Q132.99-23.7 135.94-25.7 138.89-27.7 143.29-27.7L143.29-27.7Q148.14-27.7 150.16-25.73 152.19-23.75 152.19-18.65L152.19-18.65 152.19-4.55Q152.19-3.3 152.34-2.4L152.34-2.4 156.29-1.9Q156.49-1.15 156.29 0L156.29 0Q152.74 0.15 148.74 0.7L148.74 0.7Q148.34 0.3 148.24-0.3L148.24-0.3 147.99-3.75Q143.84 1 138.74 1L138.74 1Q135.59 1 133.81-0.8 132.04-2.6 132.04-5.65L132.04-5.65Q132.04-10.25 136.21-12.6 140.39-14.95 147.44-15.1ZM173.64-1.7L173.64-1.7Q176.94-1.7 178.86-4.9 180.79-8.1 180.79-14.55L180.79-14.55Q180.79-19.5 178.96-22.1 177.14-24.7 174.14-24.7L174.14-24.7Q169.74-24.7 166.54-20.45L166.54-20.45 166.54-4.9Q169.34-1.7 173.64-1.7ZM161.79 4.75L161.79-19.55Q161.79-22.9 161.64-24.25L161.64-24.25 157.69-24.75Q157.54-25.55 157.69-26.65L157.69-26.65Q161.19-26.9 166.29-27.7L166.29-27.7Q166.74-27.25 166.79-26.7L166.79-26.7Q166.54-24.95 166.54-23L166.54-23Q170.59-27.7 175.84-27.7L175.84-27.7Q180.24-27.7 183.16-24.05 186.09-20.4 186.09-14.4L186.09-14.4Q186.09-7.45 182.26-3.23 178.44 1 173.24 1L173.24 1Q169.59 1 166.54-1.35L166.54-1.35 166.54 10.9 171.59 11.65Q171.79 12.45 171.59 13.65L171.59 13.65Q168.44 13.5 164.64 13.5L164.64 13.5Q161.84 13.5 157.64 13.6L157.64 13.6Q157.34 12.6 157.64 11.65L157.64 11.65 161.59 11.1Q161.79 8.35 161.79 4.75L161.79 4.75ZM211.33-14.1L211.33-14.1 195.63-14.1Q195.18-1.35 203.28-1.35L203.28-1.35Q206.73-1.35 210.33-4.4L210.33-4.4Q211.08-3.95 211.48-2.85L211.48-2.85Q208.03 1 202.73 1L202.73 1Q190.53 1 190.53-13.35L190.53-13.35Q190.53-20.15 194.13-23.93 197.73-27.7 202.53-27.7L202.53-27.7Q207.78-27.7 210.08-24.05 212.38-20.4 212.38-14.55L212.38-14.55Q211.88-14.15 211.33-14.1ZM202.43-25.7L202.43-25.7Q199.83-25.7 198.01-23 196.18-20.3 195.78-16.1L195.78-16.1 201.98-16.1Q205.68-16.1 207.28-16.55L207.28-16.55Q207.28-20.65 206.03-23.18 204.78-25.7 202.43-25.7ZM225.18-26.7L225.18-26.7 225.08-21.55Q226.33-23.85 228.56-25.78 230.78-27.7 232.78-27.7L232.78-27.7Q234.33-27.7 235.53-27.35L235.53-27.35Q235.93-26.7 235.93-25.65L235.93-25.65Q235.93-24 235.23-22.35L235.23-22.35Q233.43-22.85 231.78-22.85L231.78-22.85Q227.68-22.85 225.03-18.85L225.03-18.85 224.93-10.1 224.93-2.55 230.48-1.8Q230.68-1 230.48 0.2L230.48 0.2Q227.33 0.05 223.28 0.05L223.28 0.05Q220.23 0.05 216.03 0.15L216.03 0.15Q215.73-0.8 216.03-1.8L216.03-1.8 219.98-2.35Q220.18-5.1 220.18-8.7L220.18-8.7 220.18-22.4Q220.18-23.4 220.03-24.25L220.03-24.25 216.08-24.75Q215.88-25.5 216.08-26.65L216.08-26.65Q219.53-26.9 224.68-27.7L224.68-27.7Q225.13-27.2 225.18-26.7ZM274.53-24.3L264.38 2.2 263.33 2.2 256.73-16.15 249.88 2.2 248.83 2.2 239.23-24.25 236.08-24.85Q235.88-25.65 236.08-26.85L236.08-26.85Q238.83-26.65 242.03-26.65L242.03-26.65Q244.88-26.65 248.08-26.8L248.08-26.8Q248.38-25.8 248.08-24.85L248.08-24.85 244.23-24.25 248.23-12.9Q249.98-7.9 250.53-5.65L250.53-5.65 250.63-5.65Q251.83-9.95 252.98-12.65L252.98-12.65 255.53-19.5 253.83-24.25 250.68-24.85Q250.48-25.65 250.68-26.85L250.68-26.85Q253.43-26.65 256.63-26.65L256.63-26.65Q259.48-26.65 262.68-26.8L262.68-26.8Q262.98-25.8 262.68-24.85L262.68-24.85 258.83-24.25 262.68-12.9Q264.43-7.9 264.98-5.65L264.98-5.65 265.08-5.65Q266.28-9.95 267.43-12.65L267.43-12.65 271.78-24.45 267.88-24.85Q267.68-25.65 267.88-26.85L267.88-26.85Q270.63-26.65 273.03-26.65L273.03-26.65Q275.08-26.65 278.28-26.8L278.28-26.8Q278.58-25.8 278.28-24.85L278.28-24.85 274.53-24.3ZM288.57-18.6L288.57-18.6 288.57-2.55 292.63-1.8Q292.68-1.55 292.7-1.35 292.73-1.15 292.73-0.9L292.73-0.9Q292.73-0.65 292.7-0.38 292.68-0.1 292.63 0.2L292.63 0.2Q289.48 0.05 286.18 0.05L286.18 0.05Q285.03 0.05 283.4 0.08 281.78 0.1 279.68 0.15L279.68 0.15Q279.53-0.3 279.53-0.8L279.53-0.8Q279.53-1.25 279.68-1.8L279.68-1.8 283.63-2.35Q283.73-3.75 283.78-5.33 283.82-6.9 283.82-8.7L283.82-8.7 283.82-19.35Q283.82-22.65 283.68-24.25L283.68-24.25 279.73-24.75Q279.63-25 279.63-25.6L279.63-25.6Q279.63-25.85 279.63-26.1 279.63-26.35 279.73-26.65L279.73-26.65Q283.13-26.85 288.32-27.7L288.32-27.7Q288.78-27.2 288.82-26.7L288.82-26.7Q288.57-25.3 288.57-18.6ZM281.28-36.45L281.28-36.45Q281.18-36.7 281.18-36.98 281.18-37.25 281.18-37.5L281.18-37.5Q281.18-38.85 282.3-39.68 283.43-40.5 285.07-40.5L285.07-40.5Q286.63-40.5 287.6-39.58 288.57-38.65 288.57-37.05L288.57-37.05Q288.57-35.75 287.45-34.95 286.32-34.15 284.57-34.15L284.57-34.15Q283.38-34.15 282.45-34.75 281.53-35.35 281.28-36.45ZM295.97-1.7L295.97-1.7 310.42-24.4 300.17-24.4 298.12-17.95Q297.37-17.75 296.27-17.95L296.27-17.95 296.42-26.7 316.02-26.7Q316.22-25.65 316.02-24.85L316.02-24.85 302.12-2.5 312.17-2.5 314.12-8.75Q314.87-8.95 315.97-8.75L315.97-8.75 315.82 0 295.97 0Q295.72-0.75 295.97-1.7ZM325.22-6.65L325.22-6.65Q325.22-4.05 326.17-2.98 327.12-1.9 329.17-1.9L329.17-1.9Q330.67-1.9 332.5-2.83 334.32-3.75 335.87-5.5L335.87-5.5 335.87-13.3Q330.72-13 327.97-11.48 325.22-9.95 325.22-6.65ZM335.87-15.1L335.87-15.1 335.87-17.65Q335.87-21.9 334.9-23.83 333.92-25.75 331.67-25.75L331.67-25.75Q329.37-25.75 327.97-24.28 326.57-22.8 326.07-19.25L326.07-19.25Q324.47-18.9 323.72-18.9L323.72-18.9Q321.77-18.9 321.42-20.3L321.42-20.3Q321.42-23.7 324.37-25.7 327.32-27.7 331.72-27.7L331.72-27.7Q336.57-27.7 338.6-25.73 340.62-23.75 340.62-18.65L340.62-18.65 340.62-4.55Q340.62-3.3 340.77-2.4L340.77-2.4 344.72-1.9Q344.92-1.15 344.72 0L344.72 0Q341.17 0.15 337.17 0.7L337.17 0.7Q336.77 0.3 336.67-0.3L336.67-0.3 336.42-3.75Q332.27 1 327.17 1L327.17 1Q324.02 1 322.25-0.8 320.47-2.6 320.47-5.65L320.47-5.65Q320.47-10.25 324.65-12.6 328.82-14.95 335.87-15.1ZM355.82-26.7L355.82-26.7 355.72-21.55Q356.97-23.85 359.19-25.78 361.42-27.7 363.42-27.7L363.42-27.7Q364.97-27.7 366.17-27.35L366.17-27.35Q366.57-26.7 366.57-25.65L366.57-25.65Q366.57-24 365.87-22.35L365.87-22.35Q364.07-22.85 362.42-22.85L362.42-22.85Q358.32-22.85 355.67-18.85L355.67-18.85 355.57-10.1 355.57-2.55 361.12-1.8Q361.32-1 361.12 0.2L361.12 0.2Q357.97 0.05 353.92 0.05L353.92 0.05Q350.87 0.05 346.67 0.15L346.67 0.15Q346.37-0.8 346.67-1.8L346.67-1.8 350.62-2.35Q350.82-5.1 350.82-8.7L350.82-8.7 350.82-22.4Q350.82-23.4 350.67-24.25L350.67-24.25 346.72-24.75Q346.52-25.5 346.72-26.65L346.72-26.65Q350.17-26.9 355.32-27.7L355.32-27.7Q355.77-27.2 355.82-26.7ZM392.92-31.7L392.92-7.1Q392.92-3.75 393.06-2.4L393.06-2.4 397.01-1.9Q397.17-1.1 397.01 0L397.01 0Q393.37 0.15 389.42 0.7L389.42 0.7Q389.06 0.35 388.92-0.25L388.92-0.25 388.67-3.45Q386.92-1.4 384.31-0.18 381.72 1.05 378.87 1.05L378.87 1.05Q374.51 1.05 371.67-2.58 368.81-6.2 368.81-12.25L368.81-12.25Q368.81-19.25 372.54-23.48 376.26-27.7 381.47-27.7L381.47-27.7Q385.56-27.7 388.17-25.75L388.17-25.75 388.17-32.45Q388.17-35.75 388.01-37.35L388.01-37.35 384.06-37.85Q383.87-38.6 384.06-39.75L384.06-39.75Q387.51-40 392.67-40.8L392.67-40.8Q393.12-40.3 393.17-39.8L393.17-39.8Q392.92-38.5 392.92-31.7L392.92-31.7ZM381.06-25L381.06-25Q377.81-25 375.87-21.58 373.92-18.15 373.92-12.1L373.92-12.1Q373.92-7.15 375.74-4.55 377.56-1.95 380.56-1.95L380.56-1.95Q382.37-1.95 384.51-3.08 386.67-4.2 388.17-6.2L388.17-6.2 388.17-22.2Q385.72-25 381.06-25Z" opacity="1" transform="matrix(1,0,0,1,0,0)" fill="#fbcd08" class="wordmark-text-0" data-fill-palette-color="quaternary" id="text-0"></path></svg></g></svg></g></svg></g></svg></g><g transform="matrix(1,0,0,1,89.09921919068643,0)"><svg viewBox="0 0 34.9600028457843 49.239440627865214" height="49.239440627865214" width="34.9600028457843"><g><svg xmlns="http://www.w3.org/2000/svg" xmlns:xlink="http://www.w3.org/1999/xlink" version="1.1" x="0" y="0" viewBox="15 0 71 100" enable-background="new 0 0 100 100" xml:space="preserve" height="49.239440627865214" width="34.9600028457843" class="icon-icon-0" data-fill-palette-color="quaternary" id="icon-0"><g fill="#fbcd08" data-fill-palette-color="quaternary"><polygon points="86,0 15,0 15,90 35.909,90 32.254,84 21,84 21,6 80,6 80,84 67.746,84 64.092,90 86,90  " fill="#fbcd08" data-fill-palette-color="quaternary"></polygon></g><polygon points="55,82 55,69 45,69 45,82 39.036,82 44.518,91 50,100 55.482,91 60.964,82 " fill="#fbcd08" data-fill-palette-color="quaternary"></polygon></svg></g></svg></g><g></g></svg></g></svg></g></svg></g></svg></g><defs></defs></svg><rect width="342.85155851775386" height="342.85155851775386" fill="none" stroke="none" visibility="hidden"></rect></g></svg></g></svg>